<svg width="75" height="100" viewBox="0 0 75 100" fill="none" xmlns="http://www.w3.org/2000/svg">
<path d="M24.3187 77.3125C24.3187 77.3125 20.475 79.65 26.9906 80.3188C34.8344 81.3188 39.0125 81.1531 47.6937 79.4844C49.4385 80.5528 51.2838 81.4478 53.2031 82.1563C33.6719 90.5063 8.95624 81.6563 24.3187 77.3125ZM21.8187 66.4594C21.8187 66.4594 17.6437 69.6313 24.1562 70.3031C32.6719 71.1375 39.35 71.3031 50.875 68.9688C51.9958 70.1055 53.3682 70.9629 54.8812 71.4719C31.3375 78.4844 4.95624 72.1375 21.8187 66.4594ZM67.9031 85.4906C67.9031 85.4906 70.7406 87.8281 64.7313 89.6656C53.5438 93.0094 17.8125 94.0094 7.79374 89.6656C4.28749 88.1656 10.9656 85.9938 13.1062 85.6594C15.2781 85.1594 16.45 85.1594 16.45 85.1594C12.6062 82.4875 -9.09688 90.6688 5.43124 93.0031C45.3375 99.5156 78.2313 90.1656 67.8781 85.4906H67.9031ZM26.125 55.1031C26.125 55.1031 7.92499 59.4469 19.6125 60.9469C24.6219 61.6156 34.4719 61.4469 43.6562 60.7813C51.1687 60.1125 58.6875 58.7812 58.6875 58.7812C58.6875 58.7812 56.0156 59.95 54.1781 61.1188C35.6469 65.9625 0.0781164 63.7906 10.2656 58.7812C18.9469 54.6062 26.1281 55.1094 26.1281 55.1094L26.125 55.1031ZM58.6875 73.3031C77.3875 63.6156 68.7062 54.2719 62.6937 55.4375C61.1937 55.7719 60.5219 56.1063 60.5219 56.1063C60.5219 56.1063 61.0219 55.1063 62.1906 54.7719C74.0469 50.5969 83.3969 67.2938 58.3469 73.8031C58.3469 73.8031 58.5125 73.6375 58.6812 73.3031H58.6875ZM27.9687 99.6844C46 100.853 73.5531 99.0156 74.2188 90.4969C74.2188 90.4969 72.8844 93.8406 59.3594 96.3406C43.9969 99.1781 24.9625 98.8406 13.775 97.0094C13.775 97.0094 16.1125 99.0125 27.9687 99.6844Z" fill="black"/>
<path d="M47.3625 0.00312805C47.3625 0.00312805 57.7156 10.5219 37.5125 26.3844C21.3156 39.2406 33.8406 46.5875 37.5125 54.9375C27.9937 46.4219 21.15 38.9063 25.825 31.8969C32.6687 21.5406 51.5375 16.5625 47.3625 0.00312805ZM42.05 47.925C46.8937 53.4344 40.7156 58.4438 40.7156 58.4438C40.7156 58.4438 53.0719 52.1 47.3937 44.25C42.2187 36.7375 38.2062 33.0625 59.9156 20.5406C59.9156 20.5406 25.6875 29.0563 42.05 47.925Z" fill="black"/>
</svg>
