<svg width="100" height="101" viewBox="0 0 100 101" fill="none" xmlns="http://www.w3.org/2000/svg">
<path fill-rule="evenodd" clip-rule="evenodd" d="M42.9178 27.908C47.3003 25.364 52.6997 25.364 57.0822 27.908L65.9178 33.0372C70.3003 35.5812 73 40.2828 73 45.3709V55.6291C73 60.7172 70.3003 65.4188 65.9178 67.9628L57.0822 73.092C52.6997 75.636 47.3003 75.636 42.9178 73.092L34.0822 67.9628C29.6997 65.4188 27 60.7172 27 55.6291V45.3709C27 40.2828 29.6997 35.5812 34.0822 33.0372L42.9178 27.908ZM53.5411 34.0749L60.4953 38.1237C61.4669 38.6894 61.4289 40.1127 60.4284 40.6251L51.3161 45.2926C50.2887 45.8189 49.0708 45.8092 48.0518 45.2668L39.4417 40.6836C38.4585 40.1603 38.4316 38.7538 39.394 38.1928L46.4589 34.0749C48.6502 32.8028 51.3499 32.8028 53.5411 34.0749ZM36.1613 46.9947C35.218 46.4925 34.0822 47.1801 34.0822 48.2533V55.6291C34.0822 58.1732 35.432 60.524 37.6232 61.796L43.9802 65.4862C44.9244 66.0344 46.1048 65.3492 46.1048 64.2528L46.1048 54.4313C46.1048 53.1125 45.3798 51.9017 44.2206 51.2846L36.1613 46.9947ZM53.187 64.6538C53.187 65.7494 54.366 66.4347 55.3103 65.8879L62.3768 61.796C64.568 60.524 65.9178 58.1732 65.9178 55.6291V48.1288C65.9178 47.0654 64.8008 46.3771 63.8584 46.8598L55.1207 51.3355C53.9341 51.9433 53.187 53.169 53.187 54.508V64.6538Z" fill="black"/>
<path d="M66 92.2305C63.7909 92.2305 62 94.0213 62 96.2305C62 98.4396 63.7909 100.23 66 100.23V92.2305ZM96 50.076L98.645 53.0767C99.5065 52.3173 100 51.2244 100 50.0761C100 48.9277 99.5065 47.8348 98.645 47.0754L96 50.076ZM66 5.45917e-07C63.7909 5.45917e-07 62 1.79086 62 4C62 6.20914 63.7909 8 66 8V5.45917e-07ZM86.8043 41.1959L83.9795 44.0279L83.9795 44.0279L86.8043 41.1959ZM27.7554 4L27.7554 0L27.7554 4ZM34 8C36.2091 8 38 6.20914 38 4C38 1.79086 36.2091 7.39046e-07 34 5.45917e-07L34 8ZM4 49.924L1.35495 46.9233C0.493527 47.6827 3.75905e-07 48.7756 0 49.9239C-3.75904e-07 51.0723 0.493526 52.1652 1.35495 52.9246L4 49.924ZM27.7554 96.2305L27.7554 100.23H27.7554V96.2305ZM34 100.23C36.2091 100.23 38 98.4396 38 96.2305C38 94.0213 36.2091 92.2305 34 92.2305V100.23ZM72.2446 100.23C75.1169 100.23 79.0468 99.5319 82.2971 96.6643C85.6493 93.7068 87.6087 89.0413 87.6087 82.5H79.6087C79.6087 87.4241 78.1849 89.6239 77.0045 90.6653C75.7223 91.7965 73.9701 92.2305 72.2446 92.2305V100.23ZM72.2446 92.2305H66V100.23H72.2446V92.2305ZM87.6087 82.5C87.6087 77.8478 87.5457 74.2714 87.5178 71.542C87.4892 68.749 87.5005 66.956 87.6173 65.6422C87.7285 64.392 87.9165 63.8488 88.098 63.4928C88.3022 63.0925 88.664 62.6013 89.6328 61.6325L83.9759 55.9757C82.8468 57.1048 81.7601 58.3121 80.9717 59.8575C80.1607 61.4473 79.8121 63.097 79.6488 64.9338C79.4911 66.707 79.4903 68.895 79.5182 71.6238C79.5467 74.4161 79.6087 77.9022 79.6087 82.5H87.6087ZM89.6328 61.6325C92.6689 58.5964 95.53 55.8226 98.645 53.0767L93.355 47.0754C90.058 49.9817 87.0625 52.8891 83.9759 55.9757L89.6328 61.6325ZM72.2446 8C73.9701 8 75.7223 8.43393 77.0045 9.5652C78.1849 10.6066 79.6087 12.8063 79.6087 17.7305H87.6087C87.6087 11.1891 85.6493 6.52364 82.2971 3.56616C79.0468 0.698564 75.1169 5.45917e-07 72.2446 5.45917e-07V8ZM72.2446 5.45917e-07H66V8H72.2446V5.45917e-07ZM79.6087 17.7305C79.6087 25.8577 79.4435 31.1557 79.7885 34.7055C79.9717 36.591 80.3172 38.3024 81.0386 39.9116C81.7748 41.5538 82.7912 42.8426 83.9795 44.0279L89.6292 38.3639C88.9018 37.6383 88.5608 37.1346 88.3386 36.639C88.1016 36.1104 87.8877 35.3386 87.7509 33.9317C87.456 30.8966 87.6087 26.3728 87.6087 17.7305H79.6087ZM83.9795 44.0279C86.9905 47.0313 90.0307 50.1464 93.355 53.0767L98.645 47.0754C95.5573 44.3535 92.7486 41.4754 89.6292 38.3639L83.9795 44.0279ZM27.7554 0C24.8831 -2.51104e-07 20.9532 0.698562 17.7029 3.56616C14.3507 6.52364 12.3913 11.1891 12.3913 17.7305H20.3913C20.3913 12.8063 21.8151 10.6066 22.9955 9.5652C24.2777 8.43393 26.0299 8 27.7554 8L27.7554 0ZM27.7554 8L34 8L34 5.45917e-07L27.7554 0L27.7554 8ZM12.3913 17.7305C12.3913 25.9549 12.6376 30.3164 12.3801 33.4787C12.2622 34.927 12.0515 35.7841 11.7853 36.4088C11.5345 36.9972 11.1454 37.5893 10.3672 38.3675L16.0241 44.0243C17.3439 42.7045 18.4032 41.2857 19.1449 39.545C19.8713 37.8405 20.1972 36.0503 20.3538 34.1279C20.6451 30.5488 20.3913 25.2756 20.3913 17.7305H12.3913ZM10.3672 38.3675C7.33111 41.4036 4.47003 44.1774 1.35495 46.9233L6.64505 52.9246C9.94195 50.0184 12.9375 47.1109 16.0241 44.0243L10.3672 38.3675ZM27.7554 92.2305C26.0299 92.2305 24.2777 91.7965 22.9955 90.6653C21.8151 89.6239 20.3913 87.4241 20.3913 82.5H12.3913C12.3913 89.0413 14.3507 93.7068 17.7029 96.6643C20.9532 99.5319 24.8831 100.23 27.7554 100.23L27.7554 92.2305ZM27.7554 100.23H34V92.2305H27.7554V100.23ZM20.3913 82.5C20.3913 74.8363 20.6451 69.5098 20.354 65.9037C20.1978 63.9693 19.8727 62.1716 19.1467 60.4627C18.4047 58.7161 17.3443 57.2959 16.0241 55.9757L10.3672 61.6325C11.145 62.4103 11.533 63.001 11.7836 63.5908C12.0501 64.2182 12.2616 65.0822 12.3799 66.5474C12.6376 69.7402 12.3913 74.1637 12.3913 82.5H20.3913ZM16.0241 55.9757C13.009 52.9606 9.96993 49.8542 6.64505 46.9233L1.35495 52.9246C4.44205 55.6459 7.25962 58.5249 10.3672 61.6325L16.0241 55.9757Z" fill="black"/>
</svg>
