<svg width="100" height="100" viewBox="0 0 100 100" fill="none" xmlns="http://www.w3.org/2000/svg">
<path fill-rule="evenodd" clip-rule="evenodd" d="M0 0H100V100H0V0ZM76.4443 83.8317C71.8094 83.8317 69.1888 81.4143 67.1745 78.1254L59.538 82.5619C62.2968 88.0127 67.9348 92.1714 76.6618 92.1714C85.5872 92.1714 92.2333 87.5365 92.2333 79.0762C92.2333 71.2286 87.7253 67.7381 79.7412 64.3143L77.392 63.3079C73.3602 61.5619 71.6142 60.4206 71.6142 57.6016C71.6142 55.3206 73.3586 53.5746 76.111 53.5746C78.8094 53.5746 80.5475 54.7127 82.1586 57.6016L89.4761 52.9032C86.3809 47.4587 82.0856 45.3794 76.111 45.3794C67.719 45.3794 62.3491 50.7444 62.3491 57.7921C62.3491 65.4429 66.8539 69.0619 73.6348 71.9508L75.9841 72.9587C80.2698 74.8333 82.8253 75.9746 82.8253 79.1968C82.8253 81.8857 80.338 83.8317 76.4443 83.8317ZM40.0269 83.773C36.7983 83.773 35.4555 81.5587 33.9793 78.9397L26.3301 83.5706C28.546 88.2603 32.9031 92.154 40.4269 92.154C48.7539 92.154 54.4587 87.7254 54.4587 77.9952V45.9159H45.0618V77.8683C45.0618 82.5651 43.1142 83.773 40.0269 83.773Z" fill="black"/>
</svg>
