<svg width="100" height="98" viewBox="0 0 100 98" fill="none" xmlns="http://www.w3.org/2000/svg">
<path fill-rule="evenodd" clip-rule="evenodd" d="M17.7083 5.49765e-06H82.2917C92.0833 5.49765e-06 100 7.95727 100 17.7992V80.2009C100 90.0427 92.0833 98 82.2917 98H17.7083C7.91667 98 0 90.0427 0 80.2009V17.7992C0 7.95727 7.91667 5.49765e-06 17.7083 5.49765e-06ZM22.5 68.7256V25.6308C22.5 25.3376 22.625 25.1701 22.9167 25.1701C23.625 25.1701 24.2917 25.1701 25.25 25.1282C25.765 25.1066 26.291 25.0962 26.8338 25.0854C27.345 25.0752 27.871 25.0648 28.4167 25.0445C28.9985 25.0228 29.6026 25.0123 30.2291 25.0015C30.8138 24.9914 31.4181 24.9809 32.0417 24.9607C33.3333 24.9188 34.5833 24.9188 35.8333 24.9188C39.25 24.9188 42.0833 25.3376 44.4167 26.2171C46.5 26.9291 48.4167 28.1017 50 29.6513C51.3333 30.9915 52.375 32.6248 53.0417 34.4256C53.6667 36.1846 54 37.9855 54 39.8701C54 43.4718 53.1667 46.4453 51.5 48.7906C49.8333 51.1359 47.5 52.8949 44.7917 53.9C41.9583 54.947 38.8333 55.3239 35.4167 55.3239C34.4167 55.3239 33.75 55.3239 33.3333 55.2821C32.9167 55.2402 32.3333 55.2402 31.5417 55.2402V68.6838C31.5833 68.9769 31.375 69.2282 31.0833 69.2701H23C22.6667 69.2701 22.5 69.1026 22.5 68.7256ZM31.5833 33.253V47.3248L31.7083 47.3338C32.2442 47.3725 32.7442 47.4085 33.2083 47.4085H35.4167C37.0417 47.4085 38.6667 47.1573 40.2083 46.6547C41.5417 46.2778 42.7083 45.4821 43.625 44.435C44.5 43.388 44.9167 41.9641 44.9167 40.1214C44.9583 38.8231 44.625 37.5248 43.9583 36.394C43.25 35.3051 42.25 34.4675 41.0417 34.0068C39.5 33.3786 37.8333 33.1274 36.125 33.1692C35.0417 33.1692 34.0833 33.1692 33.2917 33.2111C32.4583 33.1692 31.875 33.2111 31.5833 33.253ZM76 43.3462C77.4167 43.6393 78.75 44.1 80 44.7701C80.1667 44.8539 80.375 44.8539 80.75 44.7701C80.875 44.6863 80.9583 44.5188 80.9583 44.3513V37.5248C80.9583 37.3573 80.9167 37.1898 80.875 37.0222C80.7917 36.8547 80.625 36.6872 80.4583 36.6453C79.3333 36.1846 78.125 35.8496 76.875 35.6821C75.1667 35.4308 73.4167 35.3051 71.7083 35.3051C68.75 35.3051 66.2917 35.7658 64.3333 36.7709C62.5417 37.6086 61 38.9487 59.9583 40.6239C59.0417 42.1735 58.5417 43.8906 58.5417 45.6915C58.5 47.1573 58.8333 48.6231 59.5 49.9633C60.2917 51.3872 61.375 52.6017 62.6667 53.5231C64.5 54.7795 66.4583 55.7846 68.5833 56.5385C70.625 57.3342 72 57.9624 72.6667 58.5068C73.3333 59.0513 73.6667 59.5957 73.6667 60.1821C73.6667 60.9359 73.2083 61.6479 72.5417 61.941C71.7917 62.318 70.6667 62.5274 69.0833 62.5274C67.4167 62.5274 65.75 62.318 64.1667 61.8992C62.3333 61.4804 60.625 60.8103 59 59.847C58.875 59.7633 58.75 59.7214 58.625 59.8051C58.5 59.8889 58.4583 60.0564 58.4583 60.1821V67.4692C58.4167 67.8043 58.625 68.0974 58.9167 68.265C60.25 68.8932 61.7083 69.3538 63.1667 69.6051C65.0417 69.9821 66.9167 70.1496 68.8333 70.1496C71.8333 70.1496 74.3333 69.6889 76.375 68.8094C78.25 68.0556 79.875 66.7573 81.0417 65.0821C82.125 63.4487 82.7083 61.4804 82.6667 59.512C82.7083 58.0043 82.375 56.5385 81.7083 55.1983C80.9167 53.7744 79.7917 52.6017 78.4167 51.7222C76.4167 50.4658 74.25 49.4188 72 48.665C71 48.2462 70 47.7855 69.0417 47.2829C68.5 46.9897 68 46.6128 67.625 46.1521C67.375 45.8171 67.2083 45.4402 67.2083 45.0633C67.2083 44.6863 67.3333 44.2675 67.5417 43.9325C67.8333 43.5137 68.2917 43.2205 68.8333 43.0949C69.625 42.8855 70.5 42.7598 71.3333 42.8017C72.9167 42.8017 74.4583 43.0111 76 43.3462Z" fill="black"/>
</svg>
