<svg width="99" height="100" viewBox="0 0 99 100" fill="none" xmlns="http://www.w3.org/2000/svg">
<path d="M48.9105 0.00081794C44.8283 0.0197682 40.9299 0.367596 37.4997 0.974C27.3948 2.75754 25.5602 6.49065 25.5602 13.3751V22.4674H49.4393V25.4982H16.5985C9.6586 25.4982 3.58178 29.6656 1.68103 37.5935C-0.511456 46.6806 -0.608705 52.3512 1.68103 61.8396C3.37845 68.9024 7.4321 73.9349 14.372 73.9349H22.5822V63.0352C22.5822 55.1609 29.4017 48.2151 37.4997 48.2151H61.3511C67.9904 48.2151 73.2906 42.7535 73.2906 36.092V13.3751C73.2906 6.90978 67.8313 2.05304 61.3511 0.974C57.249 0.291794 52.9927 -0.0181326 48.9105 0.00081794ZM35.9969 7.31359C38.4634 7.31359 40.4777 9.35885 40.4777 11.8736C40.4777 14.3795 38.4634 16.4059 35.9969 16.4059C33.5215 16.4059 31.516 14.3795 31.516 11.8736C31.516 9.35885 33.5215 7.31359 35.9969 7.31359Z" fill="black"/>
<path d="M76.2686 25.4982V36.092C76.2686 44.3052 69.2988 51.218 61.3511 51.218H37.4997C30.9665 51.218 25.5602 56.8044 25.5602 63.3411V86.0579C25.5602 92.5233 31.1875 96.3261 37.4997 98.181C45.0585 100.402 52.307 100.803 61.3511 98.181C67.3627 96.4421 73.2906 92.9424 73.2906 86.0579V76.9656H49.4393V73.9349H85.2302C92.1701 73.9349 94.7562 69.0986 97.1698 61.8396C99.6628 54.3666 99.5568 47.18 97.1698 37.5935C95.4547 30.6911 92.179 25.4982 85.2302 25.4982H76.2686ZM62.8539 83.0272C65.3293 83.0272 67.3348 85.0536 67.3348 87.5594C67.3348 90.0742 65.3293 92.1195 62.8539 92.1195C60.3874 92.1195 58.3731 90.0742 58.3731 87.5594C58.3731 85.0536 60.3874 83.0272 62.8539 83.0272Z" fill="black"/>
</svg>
