<svg width="100" height="100" viewBox="0 0 100 100" fill="none" xmlns="http://www.w3.org/2000/svg">
<path fill-rule="evenodd" clip-rule="evenodd" d="M79.7081 57.1902C78.8465 61.3479 75.0107 72.012 62.7859 77.7887L57.8801 72.2696L49.6014 80.5973C44.8877 80.5339 40.2524 79.3814 36.0579 77.2299C31.8633 75.0783 28.2231 71.9861 25.4216 68.1946C26.3024 68.4686 27.2119 68.6394 28.1321 68.7036C29.4873 68.7282 30.956 68.2314 30.956 65.9441V43.4844C30.9763 42.9064 30.8607 42.3318 30.6186 41.8066C30.3765 41.2814 30.0145 40.8204 29.5619 40.4605C29.1092 40.1005 28.5785 39.8518 28.0123 39.7342C27.446 39.6167 26.8601 39.6336 26.3016 39.7835C22.4689 40.6604 19.4027 50.23 19.4027 50.23C19.3601 45.8109 20.2805 41.4355 22.0999 37.4081C23.9192 33.3807 26.594 29.7978 29.9381 26.9087C35.6473 22.0703 41.2246 20.3961 45.4621 19.74C41.2768 22.1255 38.9219 26.0195 38.9219 29.288C38.9219 34.5281 42.0862 33.9087 43.0245 33.1361V63.4666C43.183 63.8477 43.3891 64.2072 43.6377 64.5367C44.0568 65.1163 44.6089 65.587 45.2475 65.9092C45.8861 66.2315 46.5926 66.3959 47.3079 66.3887C50.4783 66.3887 54.59 62.7706 54.59 62.7706V38.2106C54.59 35.7117 52.7074 32.6915 50.8217 31.6612C50.8217 31.6612 54.311 31.048 57.0093 33.1054C57.5153 32.4857 58.0536 31.8931 58.6221 31.3301C64.8954 25.1671 70.8162 23.4194 75.7466 22.5425C75.7466 22.5425 66.7719 29.5947 66.7719 39.0384C66.7719 46.0692 66.9528 63.2121 66.9528 63.2121C70.2919 66.4193 75.2376 61.7894 79.7081 57.1902Z" fill="black"/>
<path fill-rule="evenodd" clip-rule="evenodd" d="M50 92C73.196 92 92 73.196 92 50C92 26.804 73.196 8 50 8C26.804 8 8 26.804 8 50C8 73.196 26.804 92 50 92ZM50 100C77.6142 100 100 77.6142 100 50C100 22.3858 77.6142 0 50 0C22.3858 0 0 22.3858 0 50C0 77.6142 22.3858 100 50 100Z" fill="black"/>
</svg>
