<svg width="88" height="100" viewBox="0 0 88 100" fill="none" xmlns="http://www.w3.org/2000/svg">
<path d="M88 69.971V23.3237L47.8467 0V17.8911L63.583 27.0281C64.1487 27.3489 64.1692 28.2388 63.583 28.5596L44.8845 39.4247C44.3188 39.7558 43.6503 39.7351 43.1258 39.4247L24.4273 28.5596C23.8513 28.2492 23.8411 27.3386 24.4273 27.0281L40.1534 17.8911V0L0 23.3237V69.971L15.3969 61.0306V42.7566C15.3866 42.1047 16.1477 41.6391 16.7134 41.9909L35.4119 52.856C35.9776 53.1871 36.2964 53.7769 36.2964 54.3874V76.1072C36.3067 76.7591 35.5456 77.2248 34.9799 76.8729L19.2436 67.7359L3.84666 76.6763L44 100L84.1534 76.6763L68.7564 67.7359L53.0201 76.8729C52.4647 77.2144 51.683 76.7695 51.7036 76.1072V54.3874C51.7036 53.7355 52.0636 53.156 52.5881 52.856L71.2866 41.9909C71.842 41.6494 72.6237 42.084 72.6031 42.7566V61.0306L88 69.971Z" fill="black"/>
</svg>
