<svg width="100" height="98" viewBox="0 0 100 98" fill="none" xmlns="http://www.w3.org/2000/svg">
<path fill-rule="evenodd" clip-rule="evenodd" d="M17.7084 0H82.2975C86.9941 0 91.4982 1.87526 94.8192 5.21324C98.1402 8.55122 100.006 13.0785 100.006 17.7991V80.2009C100.006 84.9215 98.1402 89.4488 94.8192 92.7868C91.4982 96.1248 86.9941 98 82.2975 98H17.7084C13.0118 98 8.50763 96.1248 5.18665 92.7868C1.86572 89.4488 0 84.9215 0 80.2009V17.7991C0 13.0785 1.86572 8.55122 5.18665 5.21324C8.50763 1.87526 13.0118 0 17.7084 0ZM21.6306 68.7232V25.6366C21.6306 25.3228 21.7632 25.1659 22.0325 25.1659C22.7467 25.1659 23.5962 25.1548 24.581 25.1325C25.5657 25.1103 26.6279 25.0874 27.7675 25.0639L31.3911 24.9972C32.666 24.9737 33.9291 24.9619 35.1806 24.9619C38.5798 24.9619 41.4418 25.3895 43.7665 26.2446C45.8655 26.9568 47.7795 28.1315 49.3688 29.6828C50.7161 31.0272 51.7573 32.6492 52.4207 34.4371C53.0487 36.1766 53.3671 38.0136 53.3612 39.8641C53.3612 43.4612 52.5338 46.428 50.8791 48.7646C49.2134 51.1132 46.8723 52.8928 44.1704 53.8641C41.1594 54.9529 37.9783 55.4897 34.7786 55.4489C33.7939 55.4489 33.1005 55.4371 32.6985 55.4136C32.2966 55.392 31.6917 55.3802 30.8877 55.3802V68.6643C30.9072 68.805 30.8705 68.9477 30.7857 69.0612C30.7009 69.1748 30.5748 69.25 30.435 69.2704C30.3852 69.2782 30.3345 69.2782 30.2847 69.2704H22.0989C21.7867 69.2625 21.6306 69.0841 21.6306 68.7232ZM30.8877 33.2564V47.2152C31.4679 47.261 32.0045 47.2832 32.4976 47.2819H34.7103C36.3341 47.3054 37.9518 47.0778 39.5067 46.6072C40.8359 46.2104 42.0239 45.4385 42.9294 44.383C43.801 43.3501 44.2368 41.9117 44.2368 40.0681C44.2705 38.7641 43.9319 37.4778 43.2611 36.3612C42.5532 35.2798 41.5312 34.4436 40.3341 33.9664C38.7749 33.3582 37.1098 33.0721 35.4382 33.125C34.3649 33.125 33.4147 33.1361 32.5873 33.1583C31.7701 33.1803 31.2036 33.2127 30.8877 33.2564ZM78.2485 68.1171V62.5881C78.2529 62.558 78.2543 62.5276 78.253 62.4973C78.2507 62.4482 78.241 62.3996 78.2239 62.3531C78.1963 62.2781 78.1504 62.2112 78.0905 62.1586C78.0353 62.1259 77.9736 62.1059 77.9098 62.1001C77.8459 62.0943 77.7817 62.1029 77.7216 62.1252C77.3626 62.1703 77.0094 62.2037 76.6484 62.2272C76.2874 62.2508 75.9089 62.2606 75.5069 62.2606C74.1266 62.258 73.1763 61.9311 72.6559 61.2799C72.1356 60.6288 71.8754 59.5382 71.8754 58.0084V43.5789H78.2621C78.368 43.5597 78.4622 43.4998 78.5249 43.4119C78.5875 43.324 78.6137 43.2151 78.5978 43.1082V36.2964C78.5978 35.9375 78.4631 35.7571 78.1938 35.7571H71.9496C71.999 34.0952 72.0439 32.3764 72.0842 30.6007C72.1246 28.8251 72.1896 27.4201 72.2794 26.3858C72.2794 26.1563 72.2676 26.0387 72.1779 25.9936C72.0605 25.9459 71.9305 25.9397 71.8091 25.9759L63.8184 26.9801C63.6862 27.0253 63.5698 27.1077 63.4827 27.2174C63.3965 27.3285 63.3304 27.454 63.2876 27.5881C63.1979 28.2157 63.1003 29.0356 62.9871 30.0476C62.874 31.0597 62.7861 32.0717 62.7178 33.0818C62.6502 34.0939 62.5942 34.9817 62.55 35.7453H58.5927C58.1829 35.7453 57.9878 35.9258 57.9878 36.2847V42.9669C57.9878 43.3769 58.1673 43.573 58.5244 43.573H62.4856V60.2953C62.4869 63.6662 63.3143 66.1159 64.9677 67.6444C66.6212 69.173 68.9016 69.9372 71.8091 69.9372C72.8883 69.9487 73.9662 69.8587 75.0288 69.6685C75.9353 69.4957 76.8312 69.2705 77.7119 68.9938C78.0696 68.9036 78.2485 68.6114 78.2485 68.1171Z" fill="black"/>
</svg>
