<svg width="100" height="97" viewBox="0 0 100 97" fill="none" xmlns="http://www.w3.org/2000/svg">
<path fill-rule="evenodd" clip-rule="evenodd" d="M82.2917 0H17.7083C7.91667 0 0 7.87607 0 17.6175V79.3825C0 89.1239 7.91667 97 17.7083 97H82.2917C92.0833 97 100 89.1239 100 79.3825V17.6175C100 7.87607 92.0833 0 82.2917 0ZM32.8333 58.0342H48.3333L51.75 67.9C51.8333 68.1902 52.125 68.3974 52.4167 68.356H61.125C61.5417 68.356 61.6667 68.1487 61.5417 67.6927L46.3333 24.9961C46.2917 24.7889 46.125 24.6645 45.7917 24.6645H35C34.7917 24.706 34.625 24.9132 34.6667 25.1205C34.6667 26.0325 34.5833 26.9444 34.4167 27.8149C34.2986 28.1674 34.2014 28.499 34.1103 28.8099C34.0729 28.9377 34.0364 29.0621 34 29.1829L20.5833 67.6098C20.4583 68.1073 20.5833 68.356 21.0417 68.356H28.875C29.25 68.3974 29.5833 68.1487 29.6667 67.7756L32.8333 58.0342ZM45.8333 49.6192H35.25C35.875 47.8782 36.5 45.9299 37.0833 43.8158C37.4961 42.5326 37.8928 41.2494 38.2835 39.9859C38.5239 39.2086 38.7619 38.4387 39 37.6808C39.5833 35.8983 40.0417 34.1158 40.4167 32.3333H40.5C40.6626 32.8879 40.8252 33.4683 40.995 34.0744C41.1298 34.5555 41.2691 35.053 41.4167 35.5667C41.75 36.7688 42.125 37.9709 42.5417 39.256C42.75 39.8985 42.9479 40.5307 43.1458 41.1628C43.3437 41.795 43.5417 42.4271 43.75 43.0697C44.125 44.3132 44.5 45.5154 44.875 46.6346C45.25 47.7124 45.5833 48.7487 45.8333 49.6192ZM67.125 30.4679C68.125 31.4214 69.4583 31.9603 70.8333 31.9188C72.25 32.0017 73.6667 31.4628 74.625 30.4679C75.625 29.4316 76.125 28.0637 76.0833 26.6543C76.125 25.2863 75.625 23.9598 74.7083 22.965C73.7917 22.0115 72.5417 21.5141 70.9167 21.5141C69.5417 21.5141 68.2083 22.0115 67.2083 22.965C66.2083 23.9184 65.6667 25.2449 65.7083 26.6543C65.6667 28.0637 66.1667 29.4316 67.125 30.4679ZM66.1667 35.9812V67.9C66.1667 68.3145 66.375 68.5632 66.7917 68.5632H74.9583C75.3333 68.5632 75.5 68.356 75.5 67.9V35.9812C75.5 35.6081 75.3333 35.4009 74.9583 35.4009H66.7083C66.3333 35.4009 66.1667 35.5667 66.1667 35.9812Z" fill="black"/>
</svg>
