<svg width="100" height="88" viewBox="0 0 100 88" fill="none" xmlns="http://www.w3.org/2000/svg">
<path d="M51.3613 10.2615C50.9803 8.3537 51.4668 6.37617 52.7861 4.32851C54.3465 1.86445 56.185 0.512298 58.3018 0.233977C61.0432 -0.0779367 63.5756 1.3787 65.935 4.53671C68.1209 7.48554 69.093 10.2615 68.8502 12.7945C68.8146 14.3211 66.5605 15.2576 62.0842 15.5695C58.5791 15.8478 56.0467 15.5004 54.4144 14.4939C52.715 13.4885 51.7086 12.0664 51.3613 10.2615ZM99.7297 87.4637C99.4871 87.9828 98.6213 87.9139 97.1275 87.2547C94.5951 86.0406 91.7848 84.2012 88.6275 81.7025C85.1225 78.9275 83.0746 76.7416 82.5199 75.1449C82.4162 74.7631 82.4516 74.2783 82.659 73.6537L83.3191 71.8834C83.7693 70.2531 83.1791 68.6229 81.5488 66.9906C80.7516 66.1932 79.6758 65.4305 78.3564 64.701C75.2693 63.0707 70.8275 61.6832 64.9639 60.5721C58.8908 59.4273 53.0978 58.7682 47.5805 58.6299L40.8838 58.9771C39.1143 61.0238 37.4148 62.9316 35.7828 64.701C34.3953 66.1586 33.0432 67.5117 31.7238 68.7609C26.4154 73.5146 21.2463 77.1234 16.1799 79.6211C9.2748 82.9871 4.10488 83.9584 0.600387 82.4662C0.14941 82.1543 0.010348 81.6342 0.14941 80.9049L0.77402 78.9619C3.16816 73.7574 7.08886 69.0037 12.4672 64.7008C12.9182 64.3199 13.4037 63.9725 13.8547 63.6262C18.1227 60.4682 23.882 57.1375 31.1344 53.7023C35.8871 51.6557 39.8088 50.3025 42.8621 49.6434L45.7418 45.6525C46.8865 44.2305 48.1004 42.8773 49.3152 41.5926C51.9174 38.782 54.5881 36.1807 57.4004 33.8557C57.6424 33.7512 57.6777 33.6129 57.5377 33.4393C56.1158 32.6418 53.7914 31.1486 50.6346 28.9629C47.9268 27.1244 45.8109 25.8404 44.2832 25.1457C39.4959 22.9953 34.6031 23.6199 29.573 27.0199C26.5535 29.032 24.923 31.2533 24.7496 33.682L24.5758 36.6662C24.7496 37.4982 22.0781 38.8865 16.5961 40.8295C15.5896 41.1416 14.7568 41.4189 14.0629 41.5924C12.848 41.8352 12.0152 41.8707 11.5996 41.6615L11.4605 41.5924L11.0795 41.3496C10.5932 40.3785 12.8836 37.0471 17.9146 31.3223C18.2619 30.9334 18.6127 30.5559 18.9654 30.1836L18.9771 30.1685L18.9887 30.1607C28.0973 20.5797 38.8398 16.8717 51.1885 19.0744C54.5883 19.6644 60.2111 21.7459 68.0871 25.2855C68.9529 24.4174 70.4467 23.3771 72.4935 22.1969C75.0959 20.7057 77.2463 19.9064 78.8775 19.8728C82.4519 19.8375 84.706 21.1904 85.6435 24.0012C86.1982 25.7023 84.9488 28.0965 81.8619 31.1842C78.6703 34.4457 75.6508 36.4926 72.8057 37.3244C69.2312 38.401 65.3451 37.7762 61.2162 35.5215C59.3785 36.9435 57.2963 38.9912 55.0404 41.5926C54.9367 41.6971 54.8322 41.8353 54.7285 41.9398L49.3857 48.3246L49.3158 48.7748L52.9937 48.6367C55.6307 48.7066 58.3021 49.1566 61.0435 50.0242C68.5041 52.4184 74.749 55.367 79.7791 58.8725C82.1732 60.5719 84.5 62.5158 86.6848 64.7008C88.9398 66.9904 91.1256 69.5582 93.1724 72.3687C94.9783 74.8684 96.5041 77.3998 97.7871 79.933C99.5916 83.473 100.25 85.9707 99.7297 87.4637ZM72.3891 26.6736C73.0482 27.1937 74.6094 27.4027 77.1428 27.2982C79.9523 27.1937 81.8617 26.6391 82.9365 25.5633C83.4576 25.0424 83.4576 24.5223 82.8674 24.0367C82.2082 23.4467 80.9941 23.3084 79.2594 23.5504C77.7672 23.7932 76.1707 24.3133 74.4365 25.1125C72.7363 25.91 72.0418 26.4309 72.3891 26.6736ZM34.5342 59.9129L33.7359 59.8094C31.3418 60.2957 29.1213 60.8504 27.0746 61.476C24.1951 62.4117 21.5227 63.4873 19.0596 64.7012C17.0818 65.6387 15.2424 66.6799 13.543 67.7893C8.12929 71.2936 5.63144 74.6951 6.08242 77.9902L6.60332 78.5803C8.02539 79.5178 10.8359 78.7883 14.9994 76.3943C20.656 73.0992 25.7207 69.2129 30.1971 64.7012C31.6893 63.1744 33.1459 61.5787 34.5342 59.9129Z" fill="black"/>
</svg>
