<svg width="66" height="100" viewBox="0 0 66 100" fill="none" xmlns="http://www.w3.org/2000/svg">
<path d="M0 16.6667C0 7.46192 7.3873 0 16.5 0H33V33.3333H16.5C7.3873 33.3333 0 25.8714 0 16.6667Z" fill="black"/>
<path d="M0 50C0 40.7953 7.3873 33.3333 16.5 33.3333H33V66.6667H16.5C7.3873 66.6667 0 59.2047 0 50Z" fill="black"/>
<path d="M33 0H49.5C58.6127 0 66 7.46192 66 16.6667C66 25.8714 58.6127 33.3333 49.5 33.3333H33V0Z" fill="black"/>
<path d="M33 50C33 40.7953 40.3873 33.3333 49.5 33.3333C58.6127 33.3333 66 40.7953 66 50C66 59.2047 58.6127 66.6667 49.5 66.6667C40.3873 66.6667 33 59.2047 33 50Z" fill="black"/>
<path d="M0 83.3333C0 74.1286 7.3873 66.6667 16.5 66.6667H33V83.3333C33 92.5381 25.6127 100 16.5 100C7.3873 100 0 92.5381 0 83.3333Z" fill="black"/>
</svg>
