<svg width="99" height="80" viewBox="0 0 99 80" fill="none" xmlns="http://www.w3.org/2000/svg">
<path d="M51.6087 44.9812C51.7938 41.6964 53.4108 38.8025 55.8502 36.751C58.2424 34.7361 61.4624 33.5045 64.9757 33.5045C68.4855 33.5045 71.7054 34.7361 74.0994 36.751C76.537 38.8025 78.154 41.6964 78.3408 44.9777C78.5259 48.3527 77.1622 51.4881 74.7699 53.8123C72.3305 56.1764 68.8609 57.6599 64.9757 57.6599C61.0904 57.6599 57.6138 56.1764 55.1762 53.8123C52.7822 51.4881 51.4219 48.3528 51.6087 44.9812Z" fill="black"/>
<path d="M30.3229 51.6184C30.3456 52.9038 30.7577 55.4017 31.3758 57.3524C32.675 61.4813 34.8786 65.3011 37.9449 68.6675C41.0915 72.1276 44.9663 74.9069 49.4417 76.8802C54.1459 78.9525 59.243 80.0086 64.5373 80C69.823 79.993 74.9201 78.916 79.6243 76.8281C84.0997 74.8357 87.9709 72.0443 91.1123 68.5824C94.1768 65.2021 96.377 61.3754 97.6797 57.2464C98.3345 55.1602 98.7483 53.0428 98.9142 50.9184C99.0766 48.8252 99.0085 46.7286 98.7099 44.6337C98.1267 40.5517 96.707 36.7215 94.5208 33.23C92.5214 30.0217 89.9441 27.2129 86.8796 24.8488L86.8866 24.8436L55.9602 1.22154C55.9322 1.2007 55.9095 1.17815 55.8798 1.15904C53.8508 -0.390399 50.4388 -0.385179 48.2072 1.16774C45.9511 2.73802 45.6927 5.33487 47.7008 6.9729L47.692 6.98159L60.591 17.416L21.276 17.4577C21.2568 17.4577 21.2376 17.4577 21.2236 17.4577C17.974 17.4612 14.8501 19.5821 14.232 22.2624C13.5964 24.993 15.8035 27.2581 19.1823 27.2702L19.1771 27.2824L39.1044 27.2442L3.5454 54.3959C3.5 54.4289 3.4511 54.4637 3.40919 54.4967C0.0548017 57.0519 -1.02954 61.3007 1.08332 63.9896C3.22762 66.7237 7.78686 66.7289 11.1762 64.0052L30.5831 48.2051C30.5831 48.2051 30.3002 50.3382 30.3229 51.6184ZM80.1917 58.7611C76.193 62.8136 70.5948 65.1118 64.5373 65.1239C58.4712 65.1343 52.8729 62.8571 48.8742 58.8115C46.9202 56.84 45.4849 54.5714 44.5996 52.1552C43.7317 49.7806 43.3947 47.2601 43.6182 44.7171C43.8295 42.2314 44.5734 39.8603 45.7608 37.7151C46.9272 35.6063 48.5337 33.7008 50.5174 32.0888C54.4043 28.9378 59.353 27.232 64.5286 27.2251C69.7095 27.2181 74.6546 28.9083 78.5451 32.0489C80.5253 33.6539 82.13 35.5525 83.2965 37.6578C84.4891 39.8013 85.2277 42.1637 85.4477 44.6563C85.6677 47.1959 85.3307 49.7129 84.4629 52.0892C83.5758 54.5123 82.1457 56.7809 80.1917 58.7611Z" fill="black"/>
</svg>
