<svg width="92" height="100" viewBox="0 0 92 100" fill="none" xmlns="http://www.w3.org/2000/svg">
<path d="M48.6916 62.8012C38.5828 59.6115 27.8628 65.1403 24.6623 75.1887C21.455 85.2472 27.0131 95.9133 37.1253 99.0963C47.2307 102.289 57.954 96.7538 61.1546 86.702C64.3585 76.6502 58.797 65.9841 48.6916 62.8012ZM66.2358 25.8512C46.6127 33.0339 44.3458 31.9943 37.1219 12.4781C33.4579 2.58154 22.4928 -2.45447 12.5385 1.18078C2.59092 4.82615 -2.47017 15.7319 1.19048 25.6284C4.85448 35.525 15.8197 40.561 25.7672 36.9156C45.3903 29.7329 47.6639 30.7792 54.8845 50.2989C58.5451 60.1954 69.5103 65.2314 79.4579 61.586C89.4121 57.9508 94.4698 47.0383 90.8092 37.1417C87.1485 27.2418 76.1834 22.2058 66.2358 25.8512Z" fill="black"/>
</svg>
